<?xml version="1.0" encoding="UTF-8"?>
<svg xmlns="http://www.w3.org/2000/svg" version="1.1" width="100" height="100" viewBox="0 0 100 100"><rect x="0" y="0" width="100" height="100" fill="#ffffff"/><g transform="scale(3.448)"><g transform="translate(0,0)"><path fill-rule="evenodd" d="M9 0L9 1L8 1L8 3L9 3L9 4L8 4L8 8L6 8L6 9L7 9L7 10L6 10L6 11L7 11L7 12L6 12L6 13L7 13L7 12L9 12L9 11L11 11L11 10L12 10L12 9L11 9L11 8L10 8L10 7L11 7L11 6L12 6L12 8L13 8L13 6L14 6L14 8L15 8L15 9L14 9L14 10L16 10L16 9L17 9L17 10L19 10L19 11L18 11L18 12L17 12L17 11L16 11L16 12L15 12L15 11L14 11L14 12L15 12L15 13L17 13L17 17L16 17L16 15L13 15L13 12L12 12L12 13L9 13L9 14L12 14L12 16L11 16L11 17L12 17L12 16L13 16L13 17L16 17L16 18L17 18L17 17L18 17L18 12L22 12L22 13L23 13L23 14L22 14L22 15L21 15L21 16L22 16L22 15L24 15L24 16L25 16L25 17L26 17L26 15L27 15L27 17L28 17L28 18L27 18L27 20L26 20L26 22L27 22L27 23L25 23L25 20L22 20L22 18L23 18L23 19L24 19L24 18L23 18L23 17L20 17L20 15L19 15L19 17L20 17L20 19L21 19L21 20L19 20L19 19L17 19L17 20L16 20L16 24L14 24L14 23L15 23L15 22L14 22L14 21L15 21L15 20L14 20L14 18L13 18L13 20L12 20L12 19L7 19L7 18L6 18L6 17L7 17L7 16L6 16L6 17L5 17L5 15L7 15L7 14L5 14L5 12L4 12L4 11L5 11L5 9L4 9L4 8L3 8L3 9L2 9L2 8L0 8L0 10L3 10L3 14L2 14L2 11L0 11L0 13L1 13L1 14L0 14L0 17L1 17L1 18L0 18L0 19L1 19L1 18L2 18L2 19L4 19L4 20L3 20L3 21L4 21L4 20L6 20L6 21L7 21L7 20L11 20L11 21L10 21L10 22L9 22L9 21L8 21L8 23L10 23L10 26L9 26L9 25L8 25L8 26L9 26L9 27L8 27L8 29L9 29L9 27L10 27L10 28L12 28L12 29L14 29L14 28L12 28L12 24L14 24L14 25L13 25L13 27L15 27L15 29L16 29L16 28L18 28L18 26L19 26L19 25L18 25L18 24L17 24L17 23L18 23L18 22L17 22L17 20L19 20L19 21L20 21L20 23L19 23L19 24L20 24L20 28L19 28L19 29L22 29L22 26L23 26L23 28L24 28L24 29L25 29L25 28L26 28L26 26L25 26L25 25L26 25L26 24L28 24L28 25L27 25L27 26L28 26L28 27L27 27L27 29L28 29L28 27L29 27L29 26L28 26L28 25L29 25L29 23L28 23L28 22L29 22L29 21L27 21L27 20L29 20L29 17L28 17L28 15L29 15L29 14L27 14L27 13L29 13L29 12L28 12L28 10L29 10L29 9L28 9L28 8L26 8L26 9L25 9L25 8L22 8L22 9L21 9L21 8L20 8L20 9L21 9L21 10L19 10L19 9L17 9L17 8L18 8L18 7L19 7L19 6L20 6L20 7L21 7L21 4L20 4L20 5L18 5L18 7L17 7L17 6L16 6L16 7L17 7L17 8L15 8L15 4L16 4L16 5L17 5L17 4L16 4L16 3L18 3L18 4L19 4L19 3L21 3L21 1L20 1L20 0L19 0L19 1L20 1L20 2L19 2L19 3L18 3L18 2L16 2L16 1L17 1L17 0L16 0L16 1L14 1L14 0L12 0L12 1L11 1L11 2L9 2L9 1L10 1L10 0ZM14 2L14 3L16 3L16 2ZM12 3L12 4L9 4L9 5L10 5L10 6L9 6L9 7L10 7L10 6L11 6L11 5L12 5L12 6L13 6L13 3ZM8 8L8 9L9 9L9 10L10 10L10 8ZM24 9L24 10L23 10L23 12L24 12L24 15L26 15L26 13L27 13L27 12L26 12L26 13L25 13L25 11L24 11L24 10L25 10L25 9ZM26 9L26 10L28 10L28 9ZM7 10L7 11L8 11L8 10ZM19 13L19 14L20 14L20 13ZM1 14L1 16L2 16L2 14ZM3 14L3 15L5 15L5 14ZM8 15L8 16L9 16L9 17L8 17L8 18L10 18L10 15ZM2 17L2 18L3 18L3 17ZM4 18L4 19L6 19L6 20L7 20L7 19L6 19L6 18ZM25 18L25 19L26 19L26 18ZM0 20L0 21L1 21L1 20ZM13 20L13 21L14 21L14 20ZM21 21L21 24L24 24L24 21ZM10 22L10 23L11 23L11 22ZM22 22L22 23L23 23L23 22ZM15 25L15 27L16 27L16 26L17 26L17 25ZM23 25L23 26L24 26L24 25ZM0 0L0 7L7 7L7 0ZM1 1L1 6L6 6L6 1ZM2 2L2 5L5 5L5 2ZM22 0L22 7L29 7L29 0ZM23 1L23 6L28 6L28 1ZM24 2L24 5L27 5L27 2ZM0 22L0 29L7 29L7 22ZM1 23L1 28L6 28L6 23ZM2 24L2 27L5 27L5 24Z" fill="#000000"/></g></g></svg>
