<?xml version="1.0" encoding="UTF-8"?>
<svg xmlns="http://www.w3.org/2000/svg" version="1.1" width="100" height="100" viewBox="0 0 100 100"><rect x="0" y="0" width="100" height="100" fill="#ffffff"/><g transform="scale(3.448)"><g transform="translate(0,0)"><path fill-rule="evenodd" d="M9 0L9 1L10 1L10 2L8 2L8 3L9 3L9 4L10 4L10 5L9 5L9 6L8 6L8 8L4 8L4 10L3 10L3 8L0 8L0 9L2 9L2 10L3 10L3 11L1 11L1 10L0 10L0 11L1 11L1 12L0 12L0 13L1 13L1 14L0 14L0 15L1 15L1 14L2 14L2 12L3 12L3 11L4 11L4 12L6 12L6 13L5 13L5 14L6 14L6 15L4 15L4 13L3 13L3 15L4 15L4 16L3 16L3 17L8 17L8 18L6 18L6 19L8 19L8 25L9 25L9 26L8 26L8 29L9 29L9 27L10 27L10 26L12 26L12 24L14 24L14 26L13 26L13 27L14 27L14 26L15 26L15 22L14 22L14 21L13 21L13 20L12 20L12 19L11 19L11 20L9 20L9 18L10 18L10 17L11 17L11 18L12 18L12 16L14 16L14 18L13 18L13 19L14 19L14 18L15 18L15 17L18 17L18 16L20 16L20 15L21 15L21 16L22 16L22 17L21 17L21 18L20 18L20 19L19 19L19 21L20 21L20 22L19 22L19 24L20 24L20 25L19 25L19 26L18 26L18 23L17 23L17 24L16 24L16 28L15 28L15 29L18 29L18 28L19 28L19 26L21 26L21 27L20 27L20 29L23 29L23 28L24 28L24 29L26 29L26 27L27 27L27 29L29 29L29 28L28 28L28 27L29 27L29 21L26 21L26 22L25 22L25 20L26 20L26 18L27 18L27 20L28 20L28 19L29 19L29 16L28 16L28 15L29 15L29 12L28 12L28 11L29 11L29 9L28 9L28 10L26 10L26 9L27 9L27 8L26 8L26 9L25 9L25 10L24 10L24 9L23 9L23 8L21 8L21 10L20 10L20 11L19 11L19 12L20 12L20 11L21 11L21 12L22 12L22 15L21 15L21 14L20 14L20 15L16 15L16 16L15 16L15 14L14 14L14 13L13 13L13 12L12 12L12 11L11 11L11 12L12 12L12 13L11 13L11 14L10 14L10 15L7 15L7 14L6 14L6 13L8 13L8 14L9 14L9 12L6 12L6 11L7 11L7 10L6 10L6 9L8 9L8 10L9 10L9 11L10 11L10 10L12 10L12 8L14 8L14 10L13 10L13 11L14 11L14 10L16 10L16 9L17 9L17 10L19 10L19 9L18 9L18 7L19 7L19 8L20 8L20 7L21 7L21 6L20 6L20 5L21 5L21 4L19 4L19 3L20 3L20 2L21 2L21 1L20 1L20 0L18 0L18 1L17 1L17 0L16 0L16 1L14 1L14 0L12 0L12 1L10 1L10 0ZM13 1L13 2L14 2L14 1ZM18 1L18 2L17 2L17 3L16 3L16 2L15 2L15 3L16 3L16 4L15 4L15 5L14 5L14 4L13 4L13 3L12 3L12 2L11 2L11 3L12 3L12 4L11 4L11 5L10 5L10 6L9 6L9 7L10 7L10 6L11 6L11 8L12 8L12 6L13 6L13 7L14 7L14 6L15 6L15 8L16 8L16 6L17 6L17 7L18 7L18 6L17 6L17 5L19 5L19 4L18 4L18 3L19 3L19 1ZM13 5L13 6L14 6L14 5ZM19 6L19 7L20 7L20 6ZM9 8L9 10L10 10L10 8ZM22 10L22 11L24 11L24 14L23 14L23 15L22 15L22 16L23 16L23 17L24 17L24 19L23 19L23 18L22 18L22 19L23 19L23 20L25 20L25 18L26 18L26 17L27 17L27 18L28 18L28 17L27 17L27 14L28 14L28 13L27 13L27 11L26 11L26 10L25 10L25 11L24 11L24 10ZM15 11L15 12L16 12L16 11ZM17 11L17 14L18 14L18 11ZM25 11L25 14L27 14L27 13L26 13L26 11ZM13 14L13 15L14 15L14 14ZM6 15L6 16L7 16L7 15ZM11 15L11 16L12 16L12 15ZM24 15L24 16L26 16L26 15ZM1 16L1 18L0 18L0 19L1 19L1 20L0 20L0 21L1 21L1 20L2 20L2 21L7 21L7 20L5 20L5 18L3 18L3 19L1 19L1 18L2 18L2 16ZM8 16L8 17L10 17L10 16ZM17 18L17 19L15 19L15 20L16 20L16 22L18 22L18 18ZM3 19L3 20L4 20L4 19ZM20 19L20 20L21 20L21 19ZM11 20L11 21L12 21L12 20ZM9 21L9 22L10 22L10 21ZM21 21L21 24L24 24L24 21ZM13 22L13 23L14 23L14 22ZM22 22L22 23L23 23L23 22ZM26 22L26 26L27 26L27 27L28 27L28 26L27 26L27 25L28 25L28 24L27 24L27 22ZM9 23L9 25L10 25L10 24L12 24L12 23ZM22 25L22 28L23 28L23 27L24 27L24 25ZM17 26L17 27L18 27L18 26ZM11 27L11 28L12 28L12 29L13 29L13 28L12 28L12 27ZM0 0L0 7L7 7L7 0ZM1 1L1 6L6 6L6 1ZM2 2L2 5L5 5L5 2ZM22 0L22 7L29 7L29 0ZM23 1L23 6L28 6L28 1ZM24 2L24 5L27 5L27 2ZM0 22L0 29L7 29L7 22ZM1 23L1 28L6 28L6 23ZM2 24L2 27L5 27L5 24Z" fill="#000000"/></g></g></svg>
